<svg xmlns="http://www.w3.org/2000/svg" width="512" height="512" viewBox="0 0 512 512" version="1.1"><path d="" stroke="none" fill="#ec2c44" fill-rule="evenodd"/><path d="M 234.917 16.388 C 234.688 16.601, 231.350 17.079, 227.500 17.448 C 213.678 18.776, 184.987 25.567, 173.500 30.229 C 170.750 31.345, 167.167 32.763, 165.537 33.379 C 159.512 35.658, 136.491 47.227, 131.085 50.692 C 118.143 58.988, 114.043 61.889, 105.014 69.139 C 88.339 82.527, 69.444 103.094, 57 121.400 C 40.259 146.026, 27.472 175.950, 21.034 205.564 C 13.558 239.957, 14.367 281.716, 23.156 315 C 27.308 330.726, 28.077 333.317, 30.010 338.089 C 31.105 340.790, 32.957 345.363, 34.126 348.250 C 38.807 359.813, 48.132 377.262, 55.635 388.500 C 66.032 404.073, 70.682 409.708, 85.866 425.135 C 99.010 438.490, 109.137 446.829, 124.541 456.981 C 134.090 463.274, 157.019 475.397, 165.511 478.642 C 188.009 487.238, 204.202 491.473, 226 494.459 C 242.001 496.652, 279.818 495.925, 295.500 493.123 C 330.285 486.909, 360.748 474.727, 390.500 455.134 C 408.514 443.271, 431.224 421.961, 446.500 402.584 C 464.564 379.671, 480.949 345.891, 488.496 316 C 494.647 291.639, 495.489 284.329, 495.468 255.500 C 495.446 226.838, 494.207 216.638, 487.876 193.052 C 483.064 175.120, 479.201 165.251, 469.262 145.500 C 463.535 134.116, 449.304 111.743, 446.046 109 C 445.719 108.725, 443.139 105.575, 440.312 102 C 434.613 94.794, 416.250 76.559, 408.529 70.440 C 405.795 68.273, 402.645 65.737, 401.529 64.804 C 395.183 59.501, 376.394 47.674, 365.500 42.127 C 348.793 33.618, 335.921 28.709, 317 23.628 C 297.610 18.422, 277.629 16, 254.058 16 C 243.759 16, 235.146 16.175, 234.917 16.388 M 165.701 165.798 L 154.937 176.596 194.652 216.206 L 234.367 255.815 194.934 295.472 C 173.245 317.283, 155.315 335.322, 155.088 335.560 C 154.668 335.999, 176.087 356.932, 177 356.975 C 177.275 356.987, 195.217 339.215, 216.870 317.480 L 256.241 277.963 295.680 317.231 C 317.372 338.829, 335.332 356.702, 335.592 356.949 C 336.231 357.556, 357.077 336.721, 356.754 335.798 C 356.615 335.398, 339.063 317.552, 317.750 296.141 C 296.438 274.731, 279 256.810, 279 256.318 C 279 255.826, 296.791 237.690, 318.536 216.015 L 358.072 176.605 347.299 165.798 C 341.374 159.855, 336.204 155.106, 335.810 155.246 C 335.416 155.386, 317.326 173.159, 295.610 194.743 L 256.125 233.986 216.829 194.493 C 195.216 172.772, 177.292 155, 176.999 155 C 176.706 155, 171.622 159.859, 165.701 165.798" stroke="none" fill="#ec2c3c" fill-rule="evenodd"/></svg>