<svg version="1.1" id="Layer_1" xmlns="http://www.w3.org/2000/svg" xmlns:xlink="http://www.w3.org/1999/xlink" x="0px" y="0px"
	 width="100%" viewBox="0 0 512 512" enable-background="new 0 0 512 512" xml:space="preserve">
<path fill="#00000000" opacity="0" stroke="none" 
	d="
M1.000002,368.000000 
	C1.000000,245.708908 1.000000,123.417816 1.000000,1.063361 
	C171.565475,1.063361 342.130981,1.063361 513.000000,1.063361 
	C513.000000,123.023155 513.000000,245.046570 512.740173,367.864136 
	C511.676453,367.477295 510.715607,366.372803 510.095703,365.102020 
	C507.315735,359.403168 504.632751,353.656982 501.881592,347.568237 
	C499.852753,343.315704 497.857117,339.422852 495.905670,335.192627 
	C486.194946,317.678253 476.836182,300.260223 466.573181,283.392395 
	C456.403107,266.677277 445.783905,250.191254 434.522217,234.195786 
	C420.592285,214.410492 405.916168,195.144516 391.333252,175.827209 
	C381.970337,163.424622 372.475861,151.099350 362.532501,139.162476 
	C349.906952,124.005676 337.349335,108.717758 323.697144,94.510002 
	C307.649384,77.809189 292.148285,60.365704 273.113281,46.843445 
	C266.530945,42.167404 259.712067,36.314026 250.513153,41.038086 
	C248.052994,42.301495 245.582413,43.613102 243.333435,45.208279 
	C227.683563,56.308609 213.667465,69.215836 200.909134,83.540390 
	C188.612320,97.346802 175.856476,110.754715 163.840317,124.798073 
	C149.760132,141.253662 135.677856,157.766907 122.651169,175.050095 
	C104.574799,199.032913 86.980949,223.417068 70.123520,248.269043 
	C56.676697,268.092926 44.465813,288.767975 32.060966,309.279663 
	C26.938324,317.750061 22.742605,326.781006 17.852982,335.830872 
	C15.747986,340.049164 13.915321,343.993561 11.734475,348.049805 
	C8.548933,354.469421 5.738496,360.789703 2.821935,367.060669 
	C2.594201,367.550354 1.624739,367.695007 1.000002,368.000000 
z"/>
<path fill="#000000" opacity="0" stroke="none" 
	d="
M513.000000,383.000000 
	C513.000000,426.308746 513.000000,469.617523 513.000000,512.963135 
	C342.454681,512.963135 171.909378,512.963135 1.000000,512.963135 
	C1.000000,469.979797 1.000000,426.958557 1.249790,383.143188 
	C5.537058,387.280182 8.892949,393.060852 13.756238,396.962616 
	C23.390530,404.692139 33.328320,412.343903 44.103058,418.281342 
	C60.473881,427.302521 77.345993,435.597015 94.586548,442.810730 
	C116.336700,451.911346 138.951813,458.763947 162.101303,463.461426 
	C176.489258,466.381042 191.007950,468.695923 205.519745,470.948700 
	C212.653824,472.056183 219.894363,472.570587 227.106644,473.060242 
	C238.461411,473.831146 249.831970,474.816528 261.197754,474.841614 
	C270.894012,474.863007 280.604706,473.796082 290.287506,472.961456 
	C300.263733,472.101501 310.335938,471.594360 320.148376,469.764801 
	C336.791992,466.661499 353.336487,462.936737 369.792419,458.937347 
	C395.446167,452.702606 420.260101,443.831696 443.996582,432.339722 
	C457.897858,425.609436 471.556183,418.104309 484.401642,409.561157 
	C493.147644,403.744476 500.326904,395.559631 508.138153,388.359375 
	C509.904602,386.731110 511.386902,384.794586 513.000000,383.000000 
z"/>
<path fill="#90C240" opacity="1.000000" stroke="none" 
	d="
M513.000000,382.533875 
	C511.386902,384.794586 509.904602,386.731110 508.138153,388.359375 
	C500.326904,395.559631 493.147644,403.744476 484.401642,409.561157 
	C471.556183,418.104309 457.897858,425.609436 443.996582,432.339722 
	C420.260101,443.831696 395.446167,452.702606 369.792419,458.937347 
	C353.336487,462.936737 336.791992,466.661499 320.148376,469.764801 
	C310.335938,471.594360 300.263733,472.101501 290.287506,472.961456 
	C280.604706,473.796082 270.894012,474.863007 261.197754,474.841614 
	C249.831970,474.816528 238.461411,473.831146 227.106644,473.060242 
	C219.894363,472.570587 212.653824,472.056183 205.519745,470.948700 
	C191.007950,468.695923 176.489258,466.381042 162.101303,463.461426 
	C138.951813,458.763947 116.336700,451.911346 94.586548,442.810730 
	C77.345993,435.597015 60.473881,427.302521 44.103058,418.281342 
	C33.328320,412.343903 23.390530,404.692139 13.756238,396.962616 
	C8.892949,393.060852 5.537058,387.280182 1.249790,382.674561 
	C1.000000,378.310760 1.000000,373.621490 1.000002,368.466125 
	C1.624739,367.695007 2.594201,367.550354 2.821935,367.060669 
	C5.738496,360.789703 8.548933,354.469421 12.078436,348.058838 
	C18.809956,352.640442 24.517591,357.846802 30.940050,361.928375 
	C94.906914,402.580597 165.582413,421.851562 240.616928,425.834259 
	C296.002808,428.774017 349.781738,419.052765 401.991394,400.846100 
	C437.336151,388.520630 471.495667,373.691895 500.107330,348.584503 
	C500.556213,348.190582 501.305634,348.139130 501.914795,347.927856 
	C504.632751,353.656982 507.315735,359.403168 510.095703,365.102020 
	C510.715607,366.372803 511.676453,367.477295 512.740173,368.329163 
	C513.000000,372.689240 513.000000,377.378510 513.000000,382.533875 
z"/>
<path fill="#E3482C" opacity="1.000000" stroke="none" 
	d="
M18.125307,335.557007 
	C22.742605,326.781006 26.938324,317.750061 32.060966,309.279663 
	C44.465813,288.767975 56.676697,268.092926 70.123520,248.269043 
	C86.980949,223.417068 104.574799,199.032913 122.651169,175.050095 
	C135.677856,157.766907 149.760132,141.253662 163.840317,124.798073 
	C175.856476,110.754715 188.612320,97.346802 200.909134,83.540390 
	C213.667465,69.215836 227.683563,56.308609 243.333435,45.208279 
	C245.582413,43.613102 248.052994,42.301495 250.513153,41.038086 
	C259.712067,36.314026 266.530945,42.167404 273.113281,46.843445 
	C292.148285,60.365704 307.649384,77.809189 323.697144,94.510002 
	C337.349335,108.717758 349.906952,124.005676 362.532501,139.162476 
	C372.475861,151.099350 381.970337,163.424622 391.333252,175.827209 
	C405.916168,195.144516 420.592285,214.410492 434.522217,234.195786 
	C445.783905,250.191254 456.403107,266.677277 466.573181,283.392395 
	C476.836182,300.260223 486.194946,317.678253 495.571625,335.307617 
	C481.246948,344.490417 467.955566,354.566162 453.245789,361.729065 
	C369.092987,402.707001 280.810822,418.653381 187.796463,402.911774 
	C140.544968,394.915009 95.268921,380.643127 53.019909,357.769745 
	C40.924881,351.221619 29.731897,343.007324 18.125307,335.557007 
M247.500000,283.032715 
	C237.167923,283.033020 226.835693,282.997864 216.503815,283.043701 
	C206.565872,283.087799 201.756104,288.093201 202.090363,297.922424 
	C203.099808,327.606232 226.796356,349.760010 257.289917,349.528259 
	C287.854919,349.295990 310.983887,327.431732 311.928925,297.877045 
	C312.244720,287.999786 307.502075,283.071594 297.494141,283.045135 
	C281.162872,283.001953 264.831390,283.032990 247.500000,283.032715 
M148.852768,256.498901 
	C148.855194,260.994934 148.794998,265.492035 148.873856,269.986725 
	C149.012680,277.901093 153.822800,283.059967 160.913498,283.012177 
	C167.935089,282.964905 172.873459,277.715363 172.921982,269.858490 
	C173.017639,254.372833 173.024323,238.885666 172.917053,223.400146 
	C172.863281,215.637375 167.710861,210.244370 160.790237,210.290237 
	C153.843826,210.336273 148.946548,215.671524 148.881119,223.527878 
	C148.792389,234.184372 148.855026,244.842102 148.852768,256.498901 
M365.023315,272.868195 
	C365.071228,256.370819 365.188873,239.873215 365.136566,223.376144 
	C365.111847,215.567352 360.013245,210.212860 353.069336,210.292130 
	C346.142426,210.371201 341.145294,215.760742 341.097015,223.583664 
	C341.002411,238.915375 341.021881,254.248260 341.089050,269.580261 
	C341.120178,276.680237 344.923798,281.697418 350.864319,282.855469 
	C357.091980,284.069489 362.116058,280.805847 365.023315,272.868195 
M323.965332,160.369568 
	C325.930054,163.177063 327.549408,166.359558 330.011566,168.626892 
	C331.166687,169.690643 334.345032,169.708344 335.863953,168.864105 
	C337.092163,168.181427 338.090790,165.224777 337.637024,163.757492 
	C336.639069,160.530624 335.161194,157.137634 332.905090,154.722412 
	C331.341858,153.048889 328.152893,152.893967 325.690308,152.060501 
	C325.036774,154.584763 324.383270,157.109039 323.965332,160.369568 
M181.250320,169.823212 
	C186.358887,167.908844 190.901764,162.095932 190.656464,157.017441 
	C190.573410,155.297989 189.413025,153.054169 188.028061,152.158218 
	C186.940140,151.454422 183.984528,151.833923 183.188187,152.813278 
	C180.545197,156.063766 177.972351,159.585480 176.400681,163.424103 
	C175.177170,166.412384 176.439590,169.406769 181.250320,169.823212 
M184.977676,344.734802 
	C183.881638,338.669739 180.780167,336.774078 176.967499,339.838867 
	C173.682892,342.479156 171.488235,349.996002 172.853058,353.931213 
	C174.416763,358.439880 178.861725,359.556824 181.483459,355.616760 
	C183.386978,352.756073 183.870865,348.950745 184.977676,344.734802 
M430.859039,323.949921 
	C431.622192,318.261353 429.210785,313.831635 424.837494,310.636841 
	C423.377777,309.570526 420.710876,309.277252 418.963501,309.818176 
	C417.936127,310.136200 417.077576,312.799072 417.103729,314.391510 
	C417.190674,319.690460 419.453674,323.976105 424.247284,326.610474 
	C426.958282,328.100342 429.347198,328.097900 430.859039,323.949921 
M92.362061,324.871307 
	C93.904648,321.304047 95.749420,317.824341 96.822144,314.120972 
	C97.186310,312.863800 95.993042,310.319580 94.802170,309.676056 
	C93.537231,308.992523 90.734192,309.214874 89.824181,310.186066 
	C87.297371,312.882782 84.804665,315.940002 83.487686,319.318359 
	C82.699760,321.339569 84.144539,324.231140 84.585739,326.731506 
	C86.991089,326.269226 89.396439,325.806946 92.362061,324.871307 
M337.261200,358.457306 
	C343.090698,353.998962 341.804382,342.263336 335.139313,339.178253 
	C332.041260,337.744293 330.391663,339.512970 329.414917,342.066223 
	C327.038727,348.277588 330.309967,355.683777 337.261200,358.457306 
z"/>
<path fill="#FEF59A" opacity="1.000000" stroke="none" 
	d="
M17.852978,335.830872 
	C29.731897,343.007324 40.924881,351.221619 53.019909,357.769745 
	C95.268921,380.643127 140.544968,394.915009 187.796463,402.911774 
	C280.810822,418.653381 369.092987,402.707001 453.245789,361.729065 
	C467.955566,354.566162 481.246948,344.490417 495.527435,335.644958 
	C497.857117,339.422852 499.852753,343.315704 501.881592,347.568207 
	C501.305634,348.139130 500.556213,348.190582 500.107330,348.584503 
	C471.495667,373.691895 437.336151,388.520630 401.991394,400.846100 
	C349.781738,419.052765 296.002808,428.774017 240.616928,425.834259 
	C165.582413,421.851562 94.906914,402.580597 30.940050,361.928375 
	C24.517591,357.846802 18.809956,352.640442 12.426617,347.947021 
	C13.915321,343.993561 15.747986,340.049164 17.852978,335.830872 
z"/>
<path fill="#102437" opacity="1.000000" stroke="none" 
	d="
M248.000000,283.032715 
	C264.831390,283.032990 281.162872,283.001953 297.494141,283.045135 
	C307.502075,283.071594 312.244720,287.999786 311.928925,297.877045 
	C310.983887,327.431732 287.854919,349.295990 257.289917,349.528259 
	C226.796356,349.760010 203.099808,327.606232 202.090363,297.922424 
	C201.756104,288.093201 206.565872,283.087799 216.503815,283.043701 
	C226.835693,282.997864 237.167923,283.033020 248.000000,283.032715 
z"/>
<path fill="#112437" opacity="1.000000" stroke="none" 
	d="
M148.852753,255.999115 
	C148.855026,244.842102 148.792389,234.184372 148.881119,223.527878 
	C148.946548,215.671524 153.843826,210.336273 160.790237,210.290237 
	C167.710861,210.244370 172.863281,215.637375 172.917053,223.400146 
	C173.024323,238.885666 173.017639,254.372833 172.921982,269.858490 
	C172.873459,277.715363 167.935089,282.964905 160.913498,283.012177 
	C153.822800,283.059967 149.012680,277.901093 148.873856,269.986725 
	C148.794998,265.492035 148.855194,260.994934 148.852753,255.999115 
z"/>
<path fill="#112437" opacity="1.000000" stroke="none" 
	d="
M364.971405,273.296661 
	C362.116058,280.805847 357.091980,284.069489 350.864319,282.855469 
	C344.923798,281.697418 341.120178,276.680237 341.089050,269.580261 
	C341.021881,254.248260 341.002411,238.915375 341.097015,223.583664 
	C341.145294,215.760742 346.142426,210.371201 353.069336,210.292130 
	C360.013245,210.212860 365.111847,215.567352 365.136566,223.376144 
	C365.188873,239.873215 365.071228,256.370819 364.971405,273.296661 
z"/>
<path fill="#C2341B" opacity="1.000000" stroke="none" 
	d="
M323.847534,160.001434 
	C324.383270,157.109039 325.036774,154.584763 325.690308,152.060501 
	C328.152893,152.893967 331.341858,153.048889 332.905090,154.722412 
	C335.161194,157.137634 336.639069,160.530624 337.637024,163.757492 
	C338.090790,165.224777 337.092163,168.181427 335.863953,168.864105 
	C334.345032,169.708344 331.166687,169.690643 330.011566,168.626892 
	C327.549408,166.359558 325.930054,163.177063 323.847534,160.001434 
z"/>
<path fill="#C2341B" opacity="1.000000" stroke="none" 
	d="
M180.865128,169.843323 
	C176.439590,169.406769 175.177170,166.412384 176.400681,163.424103 
	C177.972351,159.585480 180.545197,156.063766 183.188187,152.813278 
	C183.984528,151.833923 186.940140,151.454422 188.028061,152.158218 
	C189.413025,153.054169 190.573410,155.297989 190.656464,157.017441 
	C190.901764,162.095932 186.358887,167.908844 180.865128,169.843323 
z"/>
<path fill="#C2341B" opacity="1.000000" stroke="none" 
	d="
M184.982697,345.150696 
	C183.870865,348.950745 183.386978,352.756073 181.483459,355.616760 
	C178.861725,359.556824 174.416763,358.439880 172.853058,353.931213 
	C171.488235,349.996002 173.682892,342.479156 176.967499,339.838867 
	C180.780167,336.774078 183.881638,338.669739 184.982697,345.150696 
z"/>
<path fill="#C2341B" opacity="1.000000" stroke="none" 
	d="
M430.770996,324.333954 
	C429.347198,328.097900 426.958282,328.100342 424.247284,326.610474 
	C419.453674,323.976105 417.190674,319.690460 417.103729,314.391510 
	C417.077576,312.799072 417.936127,310.136200 418.963501,309.818176 
	C420.710876,309.277252 423.377777,309.570526 424.837494,310.636841 
	C429.210785,313.831635 431.622192,318.261353 430.770996,324.333954 
z"/>
<path fill="#C2341A" opacity="1.000000" stroke="none" 
	d="
M92.081924,325.107971 
	C89.396439,325.806946 86.991089,326.269226 84.585739,326.731506 
	C84.144539,324.231140 82.699760,321.339569 83.487686,319.318359 
	C84.804665,315.940002 87.297371,312.882782 89.824181,310.186066 
	C90.734192,309.214874 93.537231,308.992523 94.802170,309.676056 
	C95.993042,310.319580 97.186310,312.863800 96.822144,314.120972 
	C95.749420,317.824341 93.904648,321.304047 92.081924,325.107971 
z"/>
<path fill="#C2331A" opacity="1.000000" stroke="none" 
	d="
M336.910034,358.505463 
	C330.309967,355.683777 327.038727,348.277588 329.414917,342.066223 
	C330.391663,339.512970 332.041260,337.744293 335.139313,339.178253 
	C341.804382,342.263336 343.090698,353.998962 336.910034,358.505463 
z"/>
</svg>